<?xml version="1.0" standalone="no"?>
<!DOCTYPE svg PUBLIC "-//W3C//DTD SVG 20010904//EN"
 "http://www.w3.org/TR/2001/REC-SVG-20010904/DTD/svg10.dtd">
<svg version="1.0" xmlns="http://www.w3.org/2000/svg"
 width="369.000000pt" height="369.000000pt" viewBox="0 0 369.000000 369.000000"
 preserveAspectRatio="xMidYMid meet">

<g transform="translate(0.000000,369.000000) scale(0.100000,-0.100000)"
fill="#000000" stroke="none">
<path d="M111 2356 c-17 -21 -52 -152 -66 -246 -8 -52 -15 -165 -15 -250 0
-239 23 -389 92 -597 166 -504 556 -911 1058 -1107 403 -157 824 -166 1239
-27 395 132 741 407 963 763 248 399 327 877 223 1342 -14 61 -29 114 -33 118
-12 12 -51 18 -56 9 -3 -4 4 -47 15 -96 10 -49 19 -92 19 -96 0 -4 -17 -28
-38 -52 -20 -24 -46 -56 -57 -71 -16 -22 -34 -30 -92 -41 -97 -18 -144 -41
-228 -109 -66 -54 -73 -56 -120 -54 l-50 3 -3 42 c-3 39 -1 43 25 49 57 12 64
16 61 32 -2 12 -17 19 -48 22 -40 4 -45 8 -45 29 0 20 7 26 45 35 29 7 46 17
48 29 3 14 -4 17 -36 17 -45 0 -65 18 -60 52 2 19 10 24 48 28 59 7 63 34 5
38 -52 5 -65 17 -65 62 l0 37 51 5 c47 5 80 21 67 33 -10 10 -258 10 -255 0 1
-5 21 -10 44 -10 57 0 68 -13 50 -58 -17 -40 -42 -57 -86 -57 -34 0 -39 -11
-16 -30 10 -8 30 -10 60 -6 43 7 45 6 45 -17 0 -32 -27 -55 -70 -59 -23 -2
-35 -8 -35 -18 0 -11 14 -16 52 -18 60 -3 76 -26 49 -67 -14 -21 -25 -25 -62
-25 -38 0 -45 -3 -42 -17 2 -14 16 -19 58 -23 l55 -5 0 -45 c0 -33 -4 -45 -15
-45 -122 2 -379 20 -393 27 -14 7 -17 19 -15 51 3 42 3 42 48 47 37 4 45 9 45
25 0 17 -7 20 -43 20 -72 0 -87 56 -17 65 27 3 41 10 43 23 3 13 -4 17 -32 17
-25 0 -40 7 -55 26 -24 30 -20 44 12 44 38 0 67 12 67 26 0 9 -12 14 -32 14
-44 0 -57 10 -73 56 -7 21 -17 40 -21 41 -5 2 -17 -15 -26 -37 -13 -32 -22
-40 -43 -40 -34 0 -67 -18 -59 -31 3 -6 29 -9 58 -7 49 3 51 2 54 -23 4 -37
-24 -62 -60 -55 -20 4 -30 1 -35 -10 -8 -22 2 -28 55 -30 40 -2 46 -5 44 -21
-6 -30 -21 -42 -65 -50 -27 -6 -42 -14 -42 -23 0 -12 13 -15 63 -13 l62 1 0
-53 c0 -58 -7 -65 -65 -65 -35 0 -214 -59 -277 -91 -42 -22 -53 -14 -46 33 2
18 8 22 28 20 42 -5 70 7 70 28 0 16 -7 20 -34 20 -42 0 -68 24 -64 59 3 24 7
26 61 29 49 3 58 6 55 20 -2 10 -14 18 -28 20 -55 6 -71 14 -81 39 -17 46 -4
63 52 63 37 0 49 4 49 15 0 8 -12 17 -27 20 -16 4 -38 8 -50 11 -24 5 -40 42
-29 70 5 13 14 15 42 10 42 -8 74 0 74 20 0 10 -12 14 -38 14 -47 0 -79 21
-87 58 -7 34 -35 39 -35 7 0 -33 -31 -55 -78 -55 -29 0 -42 -4 -42 -14 0 -16
30 -26 78 -26 40 0 50 -21 28 -55 -14 -21 -24 -25 -65 -25 -53 0 -66 -7 -50
-27 7 -8 32 -13 66 -13 62 0 76 -16 52 -59 -12 -22 -24 -27 -69 -31 -41 -4
-56 -9 -58 -22 -4 -21 50 -33 97 -23 28 6 31 4 31 -17 0 -13 -4 -28 -8 -35
-12 -18 -55 -32 -85 -26 -19 4 -29 0 -33 -12 -10 -24 12 -35 74 -35 l52 0 0
-54 c0 -33 -5 -58 -14 -65 -28 -23 -170 -36 -257 -23 -92 13 -111 24 -107 61
3 24 6 26 58 26 48 0 55 2 55 20 0 16 -9 21 -42 26 -50 6 -73 24 -73 55 0 21
5 23 58 26 49 3 57 6 57 23 0 16 -8 21 -47 25 -56 7 -71 19 -66 51 3 22 7 24
50 21 51 -4 97 13 80 30 -6 6 -32 12 -59 14 -58 5 -75 23 -71 79 3 34 6 39 23
37 81 -14 95 -14 95 1 0 10 -13 18 -34 23 -44 8 -74 40 -78 83 -3 37 -38 56
-38 21 0 -51 -44 -90 -102 -90 -13 0 -18 -6 -16 -17 3 -14 14 -18 53 -18 l50
0 -1 -37 c-2 -50 -18 -68 -65 -68 -21 0 -41 -5 -45 -11 -11 -18 14 -33 58 -33
39 -1 43 -4 46 -28 4 -33 -28 -68 -61 -68 -31 0 -62 -24 -52 -40 5 -9 23 -11
61 -6 49 6 54 4 54 -13 0 -31 -28 -51 -69 -51 -21 0 -43 -6 -50 -13 -18 -22 8
-37 66 -37 50 0 53 -1 53 -25 0 -29 16 -30 -168 16 -62 16 -133 29 -157 29
-50 0 -52 2 -60 56 -8 56 3 68 52 55 23 -6 48 -8 57 -5 25 10 15 39 -14 42
-69 8 -96 37 -88 93 3 22 8 23 68 24 51 0 65 3 65 15 0 11 -15 16 -51 20 -69
7 -86 23 -82 74 l3 41 63 -4 c51 -2 62 0 62 13 0 10 -13 17 -38 21 -65 12 -74
16 -88 51 -10 23 -19 32 -29 28 -8 -4 -15 -12 -15 -19 0 -20 -51 -53 -99 -64
-48 -11 -56 -15 -46 -30 9 -15 45 -14 93 3 46 16 52 13 52 -24 0 -39 -41 -78
-89 -86 -54 -9 -81 -28 -63 -45 12 -13 21 -12 125 18 20 6 23 -22 6 -61 -12
-25 -36 -38 -99 -54 -25 -6 -35 -14 -35 -28 0 -16 6 -18 39 -16 22 2 50 8 64
13 13 5 28 7 33 3 11 -6 12 -104 1 -120 -4 -6 -32 -15 -62 -19 -30 -4 -80 -13
-111 -21 -66 -16 -212 -19 -240 -4 -14 8 -19 21 -19 52 l0 40 53 -6 c42 -6 57
-4 66 8 19 23 4 36 -38 36 -44 0 -91 31 -91 61 0 18 4 20 45 13 53 -7 95 1 95
20 0 8 -17 16 -48 20 -60 8 -92 29 -92 62 0 25 1 25 55 19 38 -5 60 -3 70 5
20 17 9 30 -25 30 -67 0 -99 30 -109 104 -8 54 -29 58 -37 6 -9 -54 -36 -87
-85 -101 -27 -9 -39 -18 -39 -31 0 -22 18 -23 71 -2 32 13 43 14 49 4 20 -33
-15 -74 -81 -93 -55 -16 -60 -42 -9 -41 19 0 47 4 63 8 23 7 27 5 27 -11 0
-27 -40 -62 -80 -69 -41 -8 -60 -21 -60 -40 0 -19 51 -18 96 1 20 8 40 12 45
9 5 -3 9 -25 9 -50 l0 -44 -47 0 c-61 1 -182 16 -234 30 -25 7 -63 32 -98 64
-32 29 -79 61 -104 71 -39 15 -47 22 -47 44 0 38 27 197 45 261 20 73 19 76
-10 76 -14 0 -30 -5 -34 -10z m3453 -303 c12 -54 10 -349 -3 -428 -28 -175
-80 -348 -154 -507 l-40 -88 -66 6 c-79 6 -121 -14 -148 -71 -13 -28 -26 -38
-57 -46 -23 -6 -54 -19 -70 -31 -27 -20 -30 -20 -82 -3 -129 40 -239 -50 -233
-191 3 -53 1 -58 -31 -84 -18 -15 -40 -42 -49 -60 -12 -25 -29 -39 -64 -53
-47 -20 -50 -20 -121 -2 -81 20 -130 16 -170 -16 -15 -12 -56 -27 -93 -35 -73
-15 -115 -46 -138 -100 -11 -27 -19 -32 -63 -38 -79 -10 -113 -50 -136 -158
-6 -24 -11 -28 -41 -28 -71 0 -57 56 37 155 89 95 227 187 411 275 82 39 147
77 147 84 0 7 -6 19 -14 25 -10 8 -43 -2 -142 -48 -153 -69 -224 -110 -330
-189 -121 -90 -198 -183 -218 -265 -5 -23 -12 -27 -41 -27 -18 0 -37 4 -40 10
-9 14 32 87 88 158 128 162 352 312 813 546 276 139 411 226 524 337 179 175
246 284 341 554 72 205 107 285 142 323 27 29 34 28 41 -5z m-164 -102 c0 -4
-5 -22 -11 -40 -9 -25 -25 -39 -80 -66 -52 -27 -80 -50 -119 -97 -28 -35 -90
-99 -137 -144 -82 -76 -97 -104 -57 -104 26 0 152 110 213 184 59 74 123 126
129 106 6 -17 -66 -208 -103 -275 -58 -103 -83 -127 -156 -143 -74 -17 -88
-17 -148 -4 -58 13 -126 -7 -181 -53 -23 -19 -50 -35 -61 -35 -47 0 -109 -90
-109 -159 0 -13 -13 -36 -29 -52 -26 -25 -33 -28 -56 -19 -42 16 -77 12 -133
-16 l-53 -26 -19 24 c-30 39 -95 64 -138 52 -23 -6 -51 -6 -73 0 -20 5 -48 6
-63 2 -40 -10 -105 -75 -120 -121 -10 -29 -24 -45 -52 -60 -52 -28 -76 -64
-82 -125 -4 -46 -8 -54 -42 -75 -41 -26 -85 -75 -95 -105 -3 -11 -12 -20 -18
-20 -35 0 -93 -25 -125 -54 -25 -23 -51 -35 -81 -39 -27 -3 -53 -15 -70 -31
-27 -26 -51 -34 -51 -17 0 12 138 141 185 172 22 15 59 39 83 53 42 26 56 59
28 69 -35 14 -233 -127 -327 -233 -34 -38 -76 -74 -93 -80 -35 -12 -96 -67
-96 -87 0 -17 -30 -16 -54 2 -18 14 -17 17 29 90 57 92 130 173 236 261 48 40
79 73 79 85 0 36 -44 21 -127 -46 -90 -72 -170 -162 -241 -272 -26 -40 -50
-72 -54 -73 -4 0 -19 10 -33 22 l-26 23 35 73 c30 60 59 97 178 218 185 189
259 243 470 348 186 91 292 130 628 226 257 74 368 114 515 188 200 100 289
169 429 335 26 32 66 70 88 84 65 44 188 79 188 54z m-3219 -30 c24 -15 60
-45 79 -65 50 -53 105 -66 408 -96 145 -14 205 -12 302 10 178 41 331 25 605
-60 189 -60 343 -49 541 35 221 95 215 95 519 77 261 -16 385 -31 385 -47 0
-21 -187 -175 -212 -175 -7 0 -19 9 -26 21 -7 11 -33 29 -57 40 -69 31 -185
10 -269 -49 -25 -17 -53 -27 -77 -28 -21 0 -49 -6 -62 -13 -20 -11 -32 -10
-71 3 -109 37 -232 -2 -266 -83 -11 -28 -17 -31 -56 -31 -26 0 -57 8 -76 20
-21 12 -51 20 -80 20 -26 0 -50 4 -53 10 -3 5 -23 14 -45 20 -75 20 -199 -29
-240 -95 -13 -21 -38 -42 -65 -54 -46 -20 -70 -49 -79 -93 -3 -16 -8 -38 -11
-51 -3 -17 -20 -29 -60 -46 l-56 -23 -69 22 c-65 21 -70 25 -70 51 0 26 3 28
43 31 28 2 42 8 42 17 0 15 -14 24 -60 38 -20 5 -31 16 -33 31 -3 21 -1 22 35
16 49 -7 96 10 91 34 -3 13 -14 17 -52 18 -35 0 -53 6 -62 19 -23 31 -16 38
31 31 48 -8 85 5 85 29 0 11 -11 15 -38 15 -49 0 -82 29 -82 73 0 18 -4 38 -9
46 -12 19 -41 6 -41 -18 0 -41 -24 -74 -68 -92 -56 -24 -51 -45 12 -42 37 1
46 -2 46 -15 0 -30 -17 -45 -56 -51 -30 -5 -39 -11 -39 -26 0 -17 8 -21 48
-23 26 -2 47 -7 47 -12 0 -17 -44 -40 -76 -40 -35 0 -51 -22 -29 -40 8 -7 35
-10 62 -8 38 2 48 0 51 -13 2 -13 -8 -18 -41 -23 -50 -8 -78 -33 -98 -88 -14
-42 -21 -44 -97 -27 -41 10 -58 9 -105 -6 -67 -21 -87 -12 -87 41 l0 33 58 3
c49 3 57 6 57 23 0 17 -8 21 -45 23 -45 3 -80 24 -80 47 0 7 21 15 51 19 45 6
50 9 47 29 -2 17 -9 22 -28 20 -38 -3 -80 17 -80 38 0 15 6 17 33 12 43 -7
100 21 95 45 -4 17 -20 19 -68 7 -34 -8 -60 13 -69 55 -9 46 -39 53 -47 11 -7
-36 -30 -58 -64 -63 -17 -2 -26 -10 -28 -27 -4 -23 -2 -24 42 -19 26 3 48 2
51 -2 8 -13 -28 -52 -61 -66 -60 -25 -40 -62 23 -45 21 6 41 7 46 2 17 -17
-13 -50 -53 -61 -42 -11 -45 -16 -31 -39 7 -10 20 -12 50 -7 38 6 41 5 41 -18
0 -22 -4 -24 -65 -28 -46 -3 -73 -10 -94 -26 -17 -12 -34 -22 -39 -22 -14 0
-66 123 -101 236 -53 173 -81 350 -81 510 0 119 5 124 81 75z m2547 -317 c12
-8 22 -19 22 -24 0 -35 -252 -141 -500 -211 -279 -80 -537 -165 -645 -214
l-99 -45 -41 45 c-28 32 -53 49 -85 58 -51 15 -58 29 -36 81 13 30 21 37 55
42 29 5 42 12 47 28 30 95 167 148 252 96 24 -15 42 -19 71 -14 32 5 43 2 61
-16 19 -19 35 -23 87 -24 65 -2 65 -2 83 34 47 92 163 128 254 79 l39 -21 39
22 c27 15 47 20 68 15 23 -5 37 0 67 24 21 17 56 37 78 45 55 20 154 20 183 0z
m240 -304 l33 -20 39 20 c25 13 40 16 40 9 0 -18 -137 -149 -202 -193 l-57
-38 -37 23 c-28 17 -51 23 -91 22 -58 -2 -63 5 -41 52 13 29 55 55 87 55 11 0
28 12 38 26 40 62 128 82 191 44z m-1999 -144 c10 -11 24 -14 56 -9 36 5 52 1
91 -22 46 -27 46 -27 73 -8 80 58 173 63 228 11 38 -35 30 -53 -43 -94 -97
-54 -192 -134 -335 -280 -110 -113 -199 -225 -199 -252 0 -4 -6 -17 -14 -27
-13 -18 -19 -15 -107 57 -91 74 -209 196 -209 217 0 16 42 41 69 41 14 0 44
-9 67 -20 l42 -21 37 25 c50 34 98 47 151 39 54 -7 58 8 12 38 -40 24 -99 20
-166 -12 -36 -18 -48 -19 -68 -10 -42 19 -128 14 -158 -10 -14 -11 -31 -17
-37 -13 -21 12 -139 203 -139 224 0 47 72 79 145 66 20 -4 51 -20 69 -37 l34
-30 38 26 c45 31 94 32 166 5 29 -11 54 -20 55 -20 2 0 18 31 38 69 19 38 40
71 47 74 16 5 40 -6 57 -27z m1766 -96 c14 -5 24 -14 20 -19 -3 -6 -112 -65
-243 -132 -130 -68 -295 -156 -366 -197 l-129 -74 -25 31 c-30 39 -64 57 -125
66 -45 7 -47 9 -47 40 0 41 27 76 71 90 34 12 46 28 70 93 19 53 49 66 155 69
93 2 93 2 127 -30 19 -18 39 -41 45 -52 9 -17 14 -18 29 -8 76 53 127 64 190
41 32 -11 34 -10 67 25 33 37 85 66 118 67 9 0 29 -4 43 -10z m573 -99 c28
-17 -163 -262 -304 -390 -105 -95 -236 -184 -375 -256 -130 -67 -165 -77 -176
-49 -11 28 18 98 56 134 33 32 60 45 138 65 13 4 24 17 28 35 8 37 51 80 88
87 24 5 27 9 21 27 -4 12 -8 52 -8 89 -1 65 1 70 31 97 47 42 94 48 154 20
l49 -24 28 27 c32 30 72 47 113 47 25 0 33 6 44 34 8 19 22 41 30 50 17 17 62
21 83 7z m-1395 -293 c17 -9 53 -56 46 -61 -196 -141 -366 -321 -399 -423 -7
-21 -18 -34 -28 -34 -31 0 -242 60 -320 91 -106 42 -111 48 -74 90 30 34 31
34 116 33 75 -1 86 1 92 18 10 32 50 51 90 43 34 -6 39 -3 67 31 36 44 85 66
126 58 28 -6 30 -4 43 37 31 104 153 163 241 117z m519 -236 c5 -5 0 -24 -14
-48 -18 -31 -23 -53 -22 -106 l0 -66 -95 -26 c-100 -27 -251 -53 -336 -58
l-50 -3 1 39 c2 58 38 86 109 86 54 0 54 0 64 38 21 75 73 115 137 105 24 -4
42 2 75 27 37 26 50 31 83 27 21 -3 43 -10 48 -15z"/>
<path d="M2942 978 c2 -15 10 -23 23 -23 30 0 27 39 -3 43 -20 3 -23 0 -20
-20z"/>
<path d="M2515 738 c-65 -33 -76 -44 -68 -65 8 -21 44 -15 108 20 43 23 60 38
60 52 0 30 -33 28 -100 -7z"/>
<path d="M2870 1431 c0 -23 23 -34 39 -18 19 19 12 37 -14 37 -18 0 -25 -5
-25 -19z"/>
<path d="M2687 1353 c-4 -3 -7 -15 -7 -25 0 -23 38 -25 47 -2 8 21 -24 43 -40
27z"/>
<path d="M2573 1309 c-16 -16 -5 -39 17 -39 25 0 35 18 20 35 -15 18 -22 19
-37 4z"/>
<path d="M2330 1237 c-95 -32 -126 -46 -128 -61 -2 -10 1 -22 8 -26 12 -7 276
72 292 88 14 14 -3 42 -26 42 -11 -1 -77 -20 -146 -43z"/>
<path d="M2117 1164 c-4 -4 -7 -16 -7 -26 0 -14 6 -19 23 -16 14 2 22 10 22
23 0 20 -25 32 -38 19z"/>
<path d="M1822 1041 c-19 -11 -11 -45 11 -49 9 -2 20 4 23 13 9 21 -16 47 -34
36z"/>
<path d="M1717 1003 c-11 -10 -8 -41 4 -49 16 -9 43 21 36 40 -7 16 -28 21
-40 9z"/>
<path d="M1532 920 c-107 -50 -159 -100 -117 -116 17 -7 14 -8 120 49 65 35
80 47 80 67 0 33 -11 33 -83 0z"/>
<path d="M1627 784 c-4 -4 -7 -16 -7 -26 0 -14 6 -19 23 -16 14 2 22 10 22 23
0 20 -25 32 -38 19z"/>
<path d="M3204 2360 c-27 -11 -39 -29 -27 -41 6 -6 18 0 33 16 27 28 25 36 -6
25z"/>
<path d="M3298 2311 c-70 -53 -97 -91 -65 -91 15 0 157 117 157 130 0 21 -29
8 -92 -39z"/>
<path d="M255 2320 c-13 -22 9 -30 73 -27 51 2 67 6 67 17 0 11 -16 16 -67 18
-38 2 -69 -1 -73 -8z"/>
<path d="M3385 2224 c-59 -40 -95 -75 -95 -96 0 -27 18 -22 64 20 23 20 54 47
70 60 15 12 24 27 21 32 -9 15 -16 13 -60 -16z"/>
</g>
</svg>
